<svg width="48" height="48" viewBox="0 0 48 48" fill="none" xmlns="http://www.w3.org/2000/svg">
<path d="M26.003 14.018C32.34 14.018 35.935 18.212 36.458 23.278H36.618C40.696 23.278 44.002 26.576 44.002 30.643C44.002 34.711 40.696 38.008 36.618 38.008H15.388C11.31 38.008 8.004 34.711 8.004 30.643C8.004 26.576 11.31 23.278 15.389 23.278H15.549C16.075 18.179 19.666 14.018 26.003 14.018V14.018ZM20 8C21.5379 7.99948 23.0526 8.37507 24.4122 9.09405C25.7717 9.81302 26.9347 10.8536 27.8 12.125C27.2027 12.053 26.6016 12.0172 26 12.018C19.922 12.018 15.524 15.456 14.04 20.632L13.96 20.922L13.845 21.397L13.431 21.474C11.8568 21.8068 10.3948 22.5391 9.1855 23.6004C7.97621 24.6617 7.06035 26.0164 6.526 27.534C5.4483 26.6931 4.66002 25.5367 4.27117 24.2262C3.88233 22.9157 3.91232 21.5165 4.35696 20.2239C4.80159 18.9313 5.6387 17.8097 6.75144 17.0157C7.86418 16.2218 9.19704 15.795 10.564 15.795H10.706C11.0925 13.6108 12.2358 11.6325 13.9353 10.2072C15.6348 8.78179 17.7819 8.00037 20 8V8Z" fill="#FAFAFA"/>
</svg>
