<svg width="48" height="48" viewBox="0 0 48 48" fill="none" xmlns="http://www.w3.org/2000/svg">
<path d="M26.4 16.8C32.316 16.8 35.6712 20.5776 36.1584 25.1376H36.3072C40.1136 25.1376 43.2 28.1064 43.2 31.7688C43.2 35.4312 40.1136 38.4 36.3072 38.4H16.4928C12.6864 38.4 9.59999 35.4312 9.59999 31.7688C9.59999 28.2408 12.4608 25.3584 16.0728 25.1496L16.6416 25.1376C17.1336 20.5464 20.484 16.8 26.4 16.8ZM14.0232 7.20001C15.6249 7.28688 17.1834 7.75154 18.5712 8.55601C19.7298 9.22271 20.7457 10.1113 21.5606 11.1709C22.3756 12.2304 22.9737 13.4403 23.3208 14.7312C19.1832 15.6432 16.2096 18.4272 14.9952 22.2696L14.8416 22.8L14.7312 23.2488L14.3352 23.3208C12.2434 23.7503 10.3722 24.9087 9.05519 26.5896C7.45114 25.8231 6.07589 24.6498 5.06639 23.1864C4.93569 22.996 4.85041 22.7782 4.81711 22.5497C4.78381 22.3212 4.80338 22.0881 4.87432 21.8683C4.94525 21.6485 5.06567 21.448 5.22628 21.282C5.3869 21.1161 5.58345 20.9893 5.80079 20.9112C9.10319 19.7304 10.8816 18.4008 11.8968 16.4568C13.008 14.3376 13.2144 12.0888 12.4776 9.06481C12.4218 8.83631 12.4203 8.59792 12.4732 8.36872C12.526 8.13953 12.6318 7.92588 12.782 7.74488C12.9322 7.56388 13.1227 7.42055 13.3382 7.32635C13.5537 7.23216 13.7883 7.18971 14.0232 7.20241V7.20001Z" fill="#FAFAFA"/>
</svg>
