<svg width="48" height="48" viewBox="0 0 48 48" fill="none" xmlns="http://www.w3.org/2000/svg">
<path d="M26 40C26.5305 39.9999 27.0392 40.2105 27.4144 40.5854C27.7896 40.9604 28.0004 41.4691 28.0005 41.9995C28.0007 42.5299 27.7901 43.0387 27.4151 43.4139C27.0401 43.789 26.5315 43.9999 26.001 44C25.4706 44 24.9619 43.7893 24.5868 43.4142C24.2117 43.0391 24.001 42.5304 24.001 42C24.001 41.4696 24.2117 40.9609 24.5868 40.5858C24.9619 40.2107 25.4706 40 26.001 40H26ZM19 38C19.5305 37.9999 20.0392 38.2105 20.4144 38.5854C20.7896 38.9604 21.0004 39.4691 21.0005 39.9995C21.0007 40.5299 20.7901 41.0387 20.4151 41.4139C20.0401 41.789 19.5315 41.9999 19.001 42C18.4706 42 17.9619 41.7893 17.5868 41.4142C17.2117 41.0391 17.001 40.5304 17.001 40C17.001 39.4696 17.2117 38.9609 17.5868 38.5858C17.9619 38.2107 18.4706 38 19.001 38H19ZM33 38C33.5305 37.9999 34.0392 38.2105 34.4144 38.5854C34.7896 38.9604 35.0004 39.4691 35.0005 39.9995C35.0007 40.5299 34.7901 41.0387 34.4151 41.4139C34.0401 41.789 33.5315 41.9999 33.001 42C32.4706 42 31.9619 41.7893 31.5868 41.4142C31.2117 41.0391 31.001 40.5304 31.001 40C31.001 39.4696 31.2117 38.9609 31.5868 38.5858C31.9619 38.2107 32.4706 38 33.001 38H33ZM26 12.01C32.337 12.01 35.932 16.204 36.455 21.27H36.615C40.693 21.27 43.999 24.567 43.999 28.634C43.999 32.702 40.693 35.999 36.614 35.999H15.386C11.308 35.999 8.00203 32.702 8.00203 28.634C8.00203 24.567 11.308 21.269 15.386 21.269H15.546C16.072 16.17 19.664 12.009 26.001 12.009L26 12.01ZM7.56903 20.19C7.78669 20.5668 7.85617 21.0112 7.76391 21.4364C7.67165 21.8617 7.42427 22.2373 7.07003 22.49L6.92803 22.58L5.62903 23.33C5.23967 23.5556 4.77839 23.6225 4.34099 23.5169C3.90359 23.4112 3.52368 23.1412 3.28017 22.7628C3.03666 22.3844 2.94826 21.9268 3.03334 21.4849C3.11841 21.043 3.37042 20.6509 3.73703 20.39L3.87903 20.3L5.17903 19.55C5.58086 19.3181 6.05835 19.2552 6.50652 19.3752C6.9547 19.4952 7.33687 19.7883 7.56903 20.19V20.19ZM21.709 10.662C17.908 11.882 15.2 14.752 14.089 18.583L13.995 18.924L13.879 19.4L13.467 19.477C12.27 19.7288 11.1345 20.2148 10.126 20.907C9.20652 19.3313 8.86202 17.4854 9.15126 15.6841C9.4405 13.8828 10.3456 12.2376 11.7122 11.0289C13.0788 9.82031 14.8223 9.12311 16.6454 9.05619C18.4686 8.98928 20.2585 9.5568 21.71 10.662H21.709ZM5.50503 9.978L5.63703 10.034L6.99703 10.668C7.40572 10.8594 7.7247 11.2012 7.88736 11.6221C8.05002 12.0431 8.04378 12.5106 7.86995 12.927C7.69611 13.3434 7.36813 13.6766 6.95447 13.857C6.54082 14.0374 6.07348 14.051 5.65003 13.895L5.51803 13.84L4.15803 13.206C3.74617 13.0166 3.42388 12.6748 3.25901 12.2525C3.09415 11.8302 3.09957 11.3605 3.27414 10.9421C3.44872 10.5238 3.77881 10.1895 4.19493 10.0097C4.61105 9.82982 5.08071 9.81847 5.50503 9.978V9.978ZM24.615 4.216C24.9752 4.46787 25.2274 4.84602 25.3215 5.2753C25.4156 5.70458 25.3448 6.15356 25.123 6.533L25.045 6.653L24.185 7.883C23.9269 8.25537 23.5343 8.51309 23.09 8.60194C22.6457 8.69078 22.1843 8.60384 21.8027 8.35938C21.4212 8.11493 21.1494 7.73203 21.0445 7.29125C20.9395 6.85046 21.0096 6.38615 21.24 5.996L21.318 5.875L22.178 4.646C22.3098 4.45763 22.4775 4.29708 22.6713 4.17351C22.8652 4.04994 23.0815 3.96579 23.3079 3.92586C23.5343 3.88593 23.7664 3.891 23.9908 3.94078C24.2153 3.99056 24.4277 4.08409 24.616 4.216H24.615ZM14.324 3.797L14.389 3.953L14.902 5.363C15.0559 5.78551 15.0413 6.25105 14.8611 6.66305C14.681 7.07505 14.3492 7.4019 13.9345 7.5758C13.5198 7.74969 13.0541 7.7573 12.634 7.59702C12.2138 7.43675 11.8715 7.12091 11.678 6.715L11.613 6.559L11.1 5.149C10.9461 4.7265 10.9608 4.26096 11.1409 3.84896C11.3211 3.43695 11.6529 3.11011 12.0676 2.93621C12.4822 2.76231 12.9479 2.75471 13.3681 2.91498C13.7882 3.07525 14.1305 3.3911 14.324 3.797Z" fill="#FAFAFA"/>
</svg>
