<svg width="48" height="48" viewBox="0 0 48 48" fill="none" xmlns="http://www.w3.org/2000/svg">
<path d="M25.996 15.998C32.333 15.998 35.928 20.192 36.45 25.258H36.61C40.688 25.258 43.994 28.556 43.994 32.623C43.994 36.691 40.688 39.988 36.61 39.988H15.38C11.303 39.988 7.99703 36.691 7.99703 32.623C7.99703 28.556 11.303 25.258 15.381 25.258H15.541C16.067 20.159 19.658 15.998 25.996 15.998V15.998ZM7.56903 24.191C7.7864 24.5677 7.85572 25.0118 7.76347 25.4369C7.67122 25.8619 7.42401 26.2373 7.07003 26.49L6.92803 26.581L5.62903 27.331C5.23967 27.5566 4.77839 27.6235 4.34099 27.5179C3.90359 27.4122 3.52368 27.1422 3.28017 26.7638C3.03666 26.3854 2.94826 25.9278 3.03334 25.4859C3.11841 25.044 3.37042 24.6519 3.73703 24.391L3.87903 24.3L5.17903 23.55C5.58086 23.3181 6.05835 23.2552 6.50652 23.3752C6.9547 23.4952 7.33687 23.7883 7.56903 24.19V24.191ZM21.705 14.651C17.904 15.871 15.196 18.741 14.085 22.572L13.991 22.912L13.875 23.388L13.463 23.465C12.2656 23.717 11.1298 24.2033 10.121 24.896C9.20095 23.3203 8.85601 21.4742 9.14501 19.6725C9.43401 17.8709 10.3391 16.2253 11.7058 15.0164C13.0726 13.8075 14.8164 13.1102 16.6398 13.0434C18.4633 12.9766 20.2535 13.5444 21.705 14.65V14.651ZM5.50503 13.979L5.63703 14.034L6.99703 14.668C7.40888 14.8574 7.73117 15.1992 7.89604 15.6215C8.06091 16.0438 8.05548 16.5135 7.88091 16.9319C7.70634 17.3502 7.37624 17.6845 6.96012 17.8644C6.54401 18.0442 6.07434 18.0555 5.65003 17.896L5.51803 17.84L4.15803 17.206C3.74933 17.0147 3.43035 16.6728 3.26769 16.2519C3.10504 15.831 3.11128 15.3635 3.28511 14.947C3.45894 14.5306 3.78692 14.1974 4.20058 14.017C4.61423 13.8366 5.08158 13.823 5.50503 13.979V13.979ZM24.615 8.21701C24.9749 8.46885 25.2269 8.84682 25.321 9.27587C25.4151 9.70491 25.3445 10.1537 25.123 10.533L25.045 10.654L24.185 11.883C23.9269 12.2554 23.5343 12.5131 23.09 12.6019C22.6457 12.6908 22.1843 12.6038 21.8027 12.3594C21.4212 12.1149 21.1494 11.732 21.0445 11.2913C20.9395 10.8505 21.0096 10.3862 21.24 9.99601L21.318 9.87601L22.178 8.64601C22.3098 8.45764 22.4775 8.29708 22.6713 8.17352C22.8652 8.04995 23.0815 7.9658 23.3079 7.92587C23.5343 7.88593 23.7664 7.891 23.9909 7.94079C24.2153 7.99057 24.4277 8.08409 24.616 8.21601L24.615 8.21701ZM14.324 7.79701L14.389 7.95301L14.902 9.36301C15.0573 9.78578 15.0436 10.2521 14.8637 10.6651C14.6839 11.078 14.3518 11.4057 13.9365 11.58C13.5212 11.7542 13.0547 11.7617 12.634 11.6008C12.2134 11.4399 11.871 11.123 11.678 10.716L11.613 10.56L11.1 9.15001C10.9461 8.7275 10.9608 8.26197 11.1409 7.84996C11.3211 7.43796 11.6529 7.11111 12.0676 6.93722C12.4822 6.76332 12.9479 6.75572 13.3681 6.91599C13.7882 7.07626 14.1305 7.39211 14.324 7.79801V7.79701Z" fill="#FAFAFA"/>
</svg>
