<svg width="48" height="48" viewBox="0 0 48 48" fill="none" xmlns="http://www.w3.org/2000/svg">
<path d="M26.4 40.0008C26.6153 39.9924 26.83 40.0277 27.0314 40.1043C27.2327 40.1809 27.4165 40.2974 27.5718 40.4468C27.727 40.5961 27.8505 40.7753 27.9349 40.9735C28.0193 41.1717 28.0628 41.385 28.0628 41.6004C28.0628 41.8158 28.0193 42.029 27.9349 42.2273C27.8505 42.4255 27.727 42.6047 27.5718 42.754C27.4165 42.9034 27.2327 43.0199 27.0314 43.0965C26.83 43.1731 26.6153 43.2083 26.4 43.2C25.9865 43.184 25.5952 43.0084 25.3083 42.7102C25.0214 42.412 24.8612 42.0142 24.8612 41.6004C24.8612 41.1866 25.0214 40.7888 25.3083 40.4906C25.5952 40.1923 25.9865 40.0168 26.4 40.0008V40.0008ZM20.8008 38.4C21.0161 38.3916 21.2308 38.4268 21.4322 38.5035C21.6335 38.5801 21.8173 38.6966 21.9726 38.846C22.1278 38.9953 22.2513 39.1745 22.3357 39.3727C22.4201 39.5709 22.4636 39.7842 22.4636 39.9996C22.4636 40.215 22.4201 40.4282 22.3357 40.6265C22.2513 40.8247 22.1278 41.0039 21.9726 41.1532C21.8173 41.3026 21.6335 41.4191 21.4322 41.4957C21.2308 41.5723 21.0161 41.6075 20.8008 41.5992C20.3873 41.5832 19.996 41.4076 19.7091 41.1094C19.4222 40.8112 19.262 40.4134 19.262 39.9996C19.262 39.5858 19.4222 39.188 19.7091 38.8898C19.996 38.5915 20.3873 38.416 20.8008 38.4V38.4ZM31.9992 38.4C32.2145 38.3916 32.4292 38.4268 32.6306 38.5035C32.8319 38.5801 33.0157 38.6966 33.171 38.846C33.3262 38.9953 33.4497 39.1745 33.5341 39.3727C33.6185 39.5709 33.662 39.7842 33.662 39.9996C33.662 40.215 33.6185 40.4282 33.5341 40.6265C33.4497 40.8247 33.3262 41.0039 33.171 41.1532C33.0157 41.3026 32.8319 41.4191 32.6306 41.4957C32.4292 41.5723 32.2145 41.6075 31.9992 41.5992C31.5857 41.5832 31.1944 41.4076 30.9075 41.1094C30.6206 40.8112 30.4604 40.4134 30.4604 39.9996C30.4604 39.5858 30.6206 39.188 30.9075 38.8898C31.1944 38.5915 31.5857 38.416 31.9992 38.4V38.4ZM26.4 14.4C32.316 14.4 35.6712 18.1776 36.1584 22.7376H36.3072C40.1136 22.7376 43.2 25.7064 43.2 29.3688C43.2 33.0312 40.1136 36 36.3072 36H16.4928C12.6864 36 9.59999 33.0312 9.59999 29.3688C9.59999 25.8408 12.4608 22.9584 16.0728 22.7496L16.6416 22.7376C17.1336 18.1464 20.484 14.4 26.4 14.4ZM14.0232 4.79999C15.6249 4.88686 17.1834 5.35152 18.5712 6.15599C19.7298 6.82269 20.7457 7.71124 21.5606 8.77083C22.3756 9.83042 22.9737 11.0403 23.3208 12.3312C19.1832 13.2432 16.2096 16.0272 14.9952 19.8696L14.8416 20.4L14.7312 20.8488L14.3352 20.9208C12.2434 21.3502 10.3722 22.5087 9.05519 24.1896C7.45102 23.4233 6.07572 22.2499 5.06639 20.7864C4.93569 20.596 4.85041 20.3782 4.81711 20.1497C4.78381 19.9211 4.80338 19.688 4.87432 19.4683C4.94525 19.2485 5.06567 19.0479 5.22628 18.882C5.3869 18.7161 5.58345 18.5892 5.80079 18.5112C9.10319 17.3304 10.8816 16.0008 11.8968 14.0568C13.008 11.9376 13.2144 9.68879 12.4776 6.66479C12.4218 6.43628 12.4203 6.1979 12.4732 5.9687C12.526 5.7395 12.6318 5.52586 12.782 5.34486C12.9322 5.16386 13.1227 5.02052 13.3382 4.92633C13.5537 4.83213 13.7883 4.78969 14.0232 4.80239V4.79999Z" fill="#FAFAFA"/>
</svg>
